<?xml version="1.0" encoding="UTF-8"?><svg id="Warstwa_1" xmlns="http://www.w3.org/2000/svg" xmlns:xlink="http://www.w3.org/1999/xlink" viewBox="0 0 52 52"><defs><style>.cls-1{fill:url(#Gradient_bez_nazwy_70-2);}.cls-1,.cls-2,.cls-3,.cls-4,.cls-5,.cls-6{stroke-width:0px;}.cls-2{fill:url(#Gradient_bez_nazwy_70-3);}.cls-3{fill:#b9e1ec;}.cls-4{fill:url(#Gradient_bez_nazwy_70);}.cls-5{fill:url(#Gradient_bez_nazwy_6);}.cls-6{fill:#fff;}.cls-7{mask:url(#mask);}</style><radialGradient id="Gradient_bez_nazwy_70" cx="35.11" cy="21.61" fx="35.11" fy="21.61" r="6.01" gradientUnits="userSpaceOnUse"><stop offset="0" stop-color="#fff"/><stop offset=".3" stop-color="#008136"/><stop offset="1" stop-color="#1d1d1b" stop-opacity="0"/></radialGradient><radialGradient id="Gradient_bez_nazwy_70-2" cx="16.89" fx="16.89" xlink:href="#Gradient_bez_nazwy_70"/><radialGradient id="Gradient_bez_nazwy_70-3" cx="26" cy="12.26" fx="26" fy="12.26" r="6.2" xlink:href="#Gradient_bez_nazwy_70"/><mask id="mask" x="0" y="0" width="52" height="52" maskUnits="userSpaceOnUse"><polygon class="cls-6" points="19.5 34.28 19.5 39.26 18.5 39.82 18.5 33.28 19.5 34.28"/><polygon class="cls-6" points="16.5 31.28 16.5 36.61 12.68 43.05 11.26 43.84 11.11 43.75 15.5 36.33 15.5 30.28 16.5 31.28"/><rect class="cls-6" x="24" y="37.5" width="2" height="1"/><path class="cls-6" d="M25.5,39.5v3.49c-.39-.35-.75-.68-1.08-.99-.15-.14-.29-.27-.42-.39-.93-.87-1.64-1.56-2.18-2.11h3.68Z"/><path class="cls-6" d="M25.5,44.33v2.05l-12.09-2.59,5.09-2.83,1-.55,1.18-.66c.85.91,2.31,2.33,4.82,4.58Z"/><polygon class="cls-6" points="2 37 10 35 14 37 9 43 2 37"/><polygon class="cls-6" points="33.5 33.28 33.5 39.82 32.5 39.26 32.5 34.28 33.5 33.28"/><polygon class="cls-6" points="33.37 32 32.5 32.87 32.5 32 33.37 32"/><polygon class="cls-6" points="40.89 43.75 40.74 43.84 39.32 43.05 35.5 36.61 35.5 31.28 36.5 30.28 36.5 36.33 40.89 43.75"/><rect class="cls-6" x="26" y="37.5" width="2" height="1"/><path class="cls-6" d="M30.18,39.5c-.54.55-1.25,1.24-2.18,2.11-.13.12-.27.25-.42.39-.33.31-.69.64-1.08.99v-3.49h3.68Z"/><path class="cls-6" d="M38.59,43.79l-12.09,2.59v-2.05c2.51-2.25,3.97-3.67,4.82-4.58l1.18.66,1,.55,5.09,2.83Z"/><polygon class="cls-6" points="50 37 43 43 38 37 42 35 50 37"/><path class="cls-6" d="M11.12,13.19v5.88l4.79-3.59-4.79-2.29ZM27.78,26.91l1.62,9.06,4.69-4.69-6.31-4.37Z"/><path class="cls-6" d="M35.08,15.97l-8.52,4.09.98,5.46,7.27,5.04,6.07-6.07v-4.17l-5.8-4.35ZM38.31,23.46l-3.2,1.85-3.2-1.85v-3.69l3.2-1.85,3.2,1.85v3.69Z"/><path class="cls-6" d="M16.92,15.97l-5.8,4.35v4.17l6.07,6.07,7.27-5.04.98-5.46-8.52-4.09ZM20.09,23.46l-3.2,1.85-3.2-1.85v-3.69l3.2-1.85,3.2,1.85v3.69Z"/><polygon class="cls-6" points="40.88 13.19 40.88 19.07 36.09 15.48 40.88 13.19"/><polygon class="cls-6" points="34.73 9.45 34.73 15.02 32.65 16.02 32.65 8.35 34.73 9.45"/><polygon class="cls-6" points="40.26 12.37 35.73 14.54 35.73 9.98 40.26 12.37"/><polygon class="cls-6" points="16.27 10.12 16.27 14.54 11.75 12.37 16.27 10.12"/><polygon class="cls-6" points="19.35 8.58 19.35 16.02 17.27 15.02 17.27 9.62 19.35 8.58"/><path class="cls-6" d="M29.57,6.73h-6.53l-2.69,1.35v8.42l5.65,2.71,5.65-2.71V7.83l-2.08-1.1ZM27.85,15.46h-3.7l-1.84-3.2,1.84-3.19h3.7l1.84,3.19-1.84,3.2Z"/><polygon class="cls-6" points="26.5 25.42 25.5 25.42 26 22.62 26.5 25.42"/><polygon class="cls-6" points="27.16 29.12 24.84 29.12 25.32 26.42 26.68 26.42 27.16 29.12"/><polygon class="cls-6" points="28.47 36.5 23.53 36.5 23.9 34.42 28.1 34.42 28.47 36.5"/><polygon class="cls-6" points="27.93 33.42 24.07 33.42 24.15 33 24.66 30.12 27.34 30.12 27.85 33 27.93 33.42"/><polygon class="cls-6" points="24.22 26.91 22.6 35.97 17.91 31.28 24.22 26.91"/><path class="cls-6" d="M35.11,18.5l-2.7,1.56v3.11l2.7,1.56,2.7-1.56v-3.11l-2.7-1.56ZM37.25,22.82l-2.17,1.25-2.13-1.2.02-2.46,2.17-1.25,2.13,1.21-.02,2.45Z"/><path class="cls-6" d="M16.89,18.5l-2.7,1.56v3.11l2.7,1.56,2.7-1.56v-3.11l-2.7-1.56ZM19.03,22.82l-2.17,1.25-2.13-1.2.02-2.46,2.17-1.25,2.13,1.21-.02,2.45Z"/><path class="cls-6" d="M27.46,9.74h-2.92l-1.45,2.52,1.45,2.53h2.92l1.45-2.53-1.45-2.52ZM27.09,14.15h-2.18l-1.09-1.89,1.09-1.88h2.18l1.09,1.88-1.09,1.89Z"/></mask><radialGradient id="Gradient_bez_nazwy_6" cx="26" cy="26" fx="26" fy="26" r="26" gradientUnits="userSpaceOnUse"><stop offset=".3" stop-color="#1d1d1b"/><stop offset=".8" stop-color="#05628b"/><stop offset="1" stop-color="#1d1d1b" stop-opacity="0"/></radialGradient></defs><rect class="cls-3" y="0" width="52" height="52"/><polygon class="cls-4" points="40.73 18.38 40.68 24.75 35.03 28 29.49 24.88 29.54 18.48 35.19 15.23 40.73 18.38"/><polygon class="cls-1" points="22.51 18.38 22.46 24.75 16.81 28 11.27 24.88 11.32 18.48 16.97 15.23 22.51 18.38"/><polygon class="cls-2" points="32.63 12.25 29.32 18 22.68 18 19.37 12.25 22.68 6.53 29.32 6.53 32.63 12.25"/><g class="cls-7"><rect class="cls-5" width="52" height="52"/></g></svg>