<?xml version="1.0" encoding="UTF-8"?><svg xmlns="http://www.w3.org/2000/svg" xmlns:xlink="http://www.w3.org/1999/xlink" viewBox="0 0 50 50"><defs><style>.cls-1{fill:url(#Gradient_bez_nazwy_109);mix-blend-mode:screen;}.cls-1,.cls-2,.cls-3,.cls-4,.cls-5{stroke-width:0px;}.cls-2{fill:url(#Gradient_bez_nazwy_166-2);}.cls-6{isolation:isolate;}.cls-7{filter:url(#luminosity-invert);}.cls-3{fill:url(#Gradient_bez_nazwy_166-3);}.cls-4{fill:#1d1d1b;}.cls-8{mask:url(#mask);}.cls-5{fill:url(#Gradient_bez_nazwy_166);}</style><filter id="luminosity-invert" x="0" y="0" width="50" height="50" color-interpolation-filters="sRGB" filterUnits="userSpaceOnUse"><feColorMatrix result="cm" values="-1 0 0 0 1 0 -1 0 0 1 0 0 -1 0 1 0 0 0 1 0"/></filter><mask id="mask" x="0" y="0" width="50" height="50" maskUnits="userSpaceOnUse"><g class="cls-7"><polygon class="cls-4" points="18.59 32 18.59 36.98 17.59 37.54 17.59 31 18.59 32"/><polygon class="cls-4" points="15.59 29 15.59 34.33 11.77 40.77 10.35 41.56 10.2 41.47 14.59 34.05 14.59 28 15.59 29"/><path class="cls-4" d="M24.59,42.05v2.05l-12.09-2.59,5.09-2.83,1-.55,1.18-.66c.85.91,2.31,2.33,4.82,4.58Z"/><path class="cls-4" d="M24.59,37.22v3.49c-.39-.35-.75-.68-1.08-.99-.15-.14-.29-.27-.42-.39-.93-.87-1.64-1.56-2.18-2.11h3.68Z"/><polygon class="cls-4" points="13.09 34.72 8.09 40.72 1.09 34.72 9.09 32.72 13.09 34.72"/><polygon class="cls-4" points="32.59 31 32.59 37.54 31.59 36.98 31.59 32 32.59 31"/><polygon class="cls-4" points="39.98 41.47 39.83 41.56 38.41 40.77 34.59 34.33 34.59 29 35.59 28 35.59 34.05 39.98 41.47"/><rect class="cls-4" x="23.09" y="35.22" width="4" height="1"/><path class="cls-4" d="M37.68,41.51l-12.09,2.59v-2.05c2.51-2.25,3.97-3.67,4.82-4.58l1.18.66,1,.55,5.09,2.83Z"/><path class="cls-4" d="M29.27,37.22c-.54.55-1.25,1.24-2.18,2.11-.13.12-.27.25-.42.39-.33.31-.69.64-1.08.99v-3.49h3.68Z"/><polygon class="cls-4" points="49.09 34.72 42.09 40.72 37.09 34.72 41.09 32.72 49.09 34.72"/><polygon class="cls-4" points="27.56 34.22 22.62 34.22 22.99 32.14 27.19 32.14 27.56 34.22"/><polygon class="cls-4" points="23.31 24.63 21.69 33.69 17 29 23.31 24.63"/><polygon class="cls-4" points="25.59 23.14 24.59 23.14 25.09 20.34 25.59 23.14"/><polygon class="cls-4" points="26.25 26.84 23.93 26.84 24.41 24.14 25.77 24.14 26.25 26.84"/><polygon class="cls-4" points="27.02 31.14 23.16 31.14 23.75 27.84 26.43 27.84 27.02 31.14"/><polygon class="cls-4" points="33.18 29 28.49 33.69 26.87 24.63 33.18 29"/><polygon class="cls-4" points="39.97 10.91 39.97 16.79 35.18 13.2 39.97 10.91"/><polygon class="cls-4" points="39.35 10.09 34.82 12.26 34.82 7.7 39.35 10.09"/><polygon class="cls-4" points="33.82 7.17 33.82 12.74 31.74 13.74 31.74 6.07 33.82 7.17"/><polygon class="cls-4" points="15 13.2 10.21 16.79 10.21 10.91 15 13.2"/><polygon class="cls-4" points="15.36 7.84 15.36 12.26 10.84 10.09 15.36 7.84"/><polygon class="cls-4" points="18.44 6.3 18.44 13.74 16.36 12.74 16.36 7.34 18.44 6.3"/><path class="cls-4" d="M34.17,13.69l-8.52,4.09.98,5.46,7.27,5.04,6.07-6.07v-4.17l-5.8-4.35ZM37.4,21.18l-3.2,1.85-3.2-1.85v-3.69l3.2-1.85,3.2,1.85v3.69Z"/><path class="cls-4" d="M16.01,13.69l-5.8,4.35v4.17l6.07,6.07,7.27-5.04.98-5.46-8.52-4.09ZM19.18,21.18l-3.2,1.85-3.2-1.85v-3.69l3.2-1.85,3.2,1.85v3.69Z"/><path class="cls-4" d="M28.66,4.45h-6.53l-2.69,1.35v8.42l5.65,2.71,5.65-2.71V5.55l-2.08-1.1ZM26.94,13.18h-3.7l-1.84-3.2,1.84-3.19h3.7l1.84,3.19-1.84,3.2Z"/><path class="cls-4" d="M34.2,16.22l-2.7,1.56v3.11l2.7,1.56,2.7-1.56v-3.11l-2.7-1.56ZM36.34,20.54l-2.17,1.25-2.13-1.2.02-2.46,2.17-1.25,2.13,1.21-.02,2.45Z"/><path class="cls-4" d="M15.98,16.22l-2.7,1.56v3.11l2.7,1.56,2.7-1.56v-3.11l-2.7-1.56ZM18.12,20.54l-2.17,1.25-2.13-1.2.02-2.46,2.17-1.25,2.13,1.21-.02,2.45Z"/><path class="cls-4" d="M26.55,7.46h-2.92l-1.45,2.52,1.45,2.53h2.92l1.45-2.53-1.45-2.52ZM26.18,11.87h-2.18l-1.09-1.89,1.09-1.88h2.18l1.09,1.88-1.09,1.89Z"/><polygon class="cls-4" points="18.59 32 18.59 36.98 17.59 37.54 17.59 31 18.59 32"/><polygon class="cls-4" points="15.59 29 15.59 34.33 11.77 40.77 10.35 41.56 10.2 41.47 14.59 34.05 14.59 28 15.59 29"/><path class="cls-4" d="M24.59,42.05v2.05l-12.09-2.59,5.09-2.83,1-.55,1.18-.66c.85.91,2.31,2.33,4.82,4.58Z"/><path class="cls-4" d="M24.59,37.22v3.49c-.39-.35-.75-.68-1.08-.99-.15-.14-.29-.27-.42-.39-.93-.87-1.64-1.56-2.18-2.11h3.68Z"/><polygon class="cls-4" points="13.09 34.72 8.09 40.72 1.09 34.72 9.09 32.72 13.09 34.72"/><polygon class="cls-4" points="32.59 31 32.59 37.54 31.59 36.98 31.59 32 32.59 31"/><polygon class="cls-4" points="39.98 41.47 39.83 41.56 38.41 40.77 34.59 34.33 34.59 29 35.59 28 35.59 34.05 39.98 41.47"/><rect class="cls-4" x="23.09" y="35.22" width="4" height="1"/><path class="cls-4" d="M37.68,41.51l-12.09,2.59v-2.05c2.51-2.25,3.97-3.67,4.82-4.58l1.18.66,1,.55,5.09,2.83Z"/><path class="cls-4" d="M29.27,37.22c-.54.55-1.25,1.24-2.18,2.11-.13.12-.27.25-.42.39-.33.31-.69.64-1.08.99v-3.49h3.68Z"/><polygon class="cls-4" points="49.09 34.72 42.09 40.72 37.09 34.72 41.09 32.72 49.09 34.72"/><polygon class="cls-4" points="27.56 34.22 22.62 34.22 22.99 32.14 27.19 32.14 27.56 34.22"/><polygon class="cls-4" points="23.31 24.63 21.69 33.69 17 29 23.31 24.63"/><polygon class="cls-4" points="25.59 23.14 24.59 23.14 25.09 20.34 25.59 23.14"/><polygon class="cls-4" points="26.25 26.84 23.93 26.84 24.41 24.14 25.77 24.14 26.25 26.84"/><polygon class="cls-4" points="27.02 31.14 23.16 31.14 23.75 27.84 26.43 27.84 27.02 31.14"/><polygon class="cls-4" points="33.18 29 28.49 33.69 26.87 24.63 33.18 29"/><polygon class="cls-4" points="39.97 10.91 39.97 16.79 35.18 13.2 39.97 10.91"/><polygon class="cls-4" points="39.35 10.09 34.82 12.26 34.82 7.7 39.35 10.09"/><polygon class="cls-4" points="33.82 7.17 33.82 12.74 31.74 13.74 31.74 6.07 33.82 7.17"/><polygon class="cls-4" points="15 13.2 10.21 16.79 10.21 10.91 15 13.2"/><polygon class="cls-4" points="15.36 7.84 15.36 12.26 10.84 10.09 15.36 7.84"/><polygon class="cls-4" points="18.44 6.3 18.44 13.74 16.36 12.74 16.36 7.34 18.44 6.3"/><path class="cls-4" d="M34.17,13.69l-8.52,4.09.98,5.46,7.27,5.04,6.07-6.07v-4.17l-5.8-4.35ZM37.4,21.18l-3.2,1.85-3.2-1.85v-3.69l3.2-1.85,3.2,1.85v3.69Z"/><path class="cls-4" d="M16.01,13.69l-5.8,4.35v4.17l6.07,6.07,7.27-5.04.98-5.46-8.52-4.09ZM19.18,21.18l-3.2,1.85-3.2-1.85v-3.69l3.2-1.85,3.2,1.85v3.69Z"/><path class="cls-4" d="M28.66,4.45h-6.53l-2.69,1.35v8.42l5.65,2.71,5.65-2.71V5.55l-2.08-1.1ZM26.94,13.18h-3.7l-1.84-3.2,1.84-3.19h3.7l1.84,3.19-1.84,3.2Z"/><path class="cls-4" d="M34.2,16.22l-2.7,1.56v3.11l2.7,1.56,2.7-1.56v-3.11l-2.7-1.56ZM36.34,20.54l-2.17,1.25-2.13-1.2.02-2.46,2.17-1.25,2.13,1.21-.02,2.45Z"/><path class="cls-4" d="M15.98,16.22l-2.7,1.56v3.11l2.7,1.56,2.7-1.56v-3.11l-2.7-1.56ZM18.12,20.54l-2.17,1.25-2.13-1.2.02-2.46,2.17-1.25,2.13,1.21-.02,2.45Z"/><path class="cls-4" d="M26.55,7.46h-2.92l-1.45,2.52,1.45,2.53h2.92l1.45-2.53-1.45-2.52ZM26.18,11.87h-2.18l-1.09-1.89,1.09-1.88h2.18l1.09,1.88-1.09,1.89Z"/></g></mask><radialGradient id="Gradient_bez_nazwy_109" cx="25" cy="25" fx="25" fy="25" r="25" gradientUnits="userSpaceOnUse"><stop offset=".17" stop-color="#94d4ec" stop-opacity=".8"/><stop offset=".5" stop-color="rgba(184,226,243,.72)" stop-opacity=".72"/><stop offset=".7" stop-color="#d5edf9" stop-opacity=".65"/><stop offset=".75" stop-color="rgba(150,196,210,.46)" stop-opacity=".46"/><stop offset=".81" stop-color="rgba(98,162,177,.29)" stop-opacity=".29"/><stop offset=".86" stop-color="rgba(58,136,152,.16)" stop-opacity=".16"/><stop offset=".91" stop-color="rgba(29,117,134,.07)" stop-opacity=".07"/><stop offset=".96" stop-color="rgba(11,105,123,.02)" stop-opacity=".02"/><stop offset="1" stop-color="#066678" stop-opacity="0"/></radialGradient><radialGradient id="Gradient_bez_nazwy_166" cx="16.07" cy="19.29" fx="16.07" fy="19.29" r="4.93" gradientTransform="translate(1.71 2.88) scale(.89 .85)" gradientUnits="userSpaceOnUse"><stop offset="0" stop-color="#f5b3d1"/><stop offset=".07" stop-color="#20a637" stop-opacity=".8"/><stop offset=".22" stop-color="rgba(52,174,77,.71)" stop-opacity=".71"/><stop offset=".51" stop-color="rgba(106,195,134,.47)" stop-opacity=".47"/><stop offset=".91" stop-color="rgba(193,229,227,.09)" stop-opacity=".09"/><stop offset="1" stop-color="#d5edf9" stop-opacity="0"/></radialGradient><radialGradient id="Gradient_bez_nazwy_166-2" cx="33.1" cy="19.91" fx="33.1" fy="19.91" r="4.93" gradientTransform="translate(4.49 2.36) scale(.89 .85)" xlink:href="#Gradient_bez_nazwy_166"/><radialGradient id="Gradient_bez_nazwy_166-3" cx="30.07" cy="19.1" fx="30.07" fy="19.1" gradientTransform="translate(-1.87 -6.24) scale(.89 .85)" xlink:href="#Gradient_bez_nazwy_166"/></defs><g class="cls-6"><g id="Warstwa_1"><g class="cls-8"><rect class="cls-1" width="50" height="50"/></g><ellipse class="cls-5" cx="16.07" cy="19.29" rx="7.27" ry="4.31" transform="translate(-7.82 11.55) rotate(-32.26)"/><ellipse class="cls-2" cx="34.07" cy="19.29" rx="7.27" ry="4.31" transform="translate(-5.04 21.16) rotate(-32.26)"/><ellipse class="cls-3" cx="25" cy="10" rx="7.27" ry="4.31" transform="translate(-1.48 14.89) rotate(-32.26)"/></g></g></svg>